<svg width="64" height="64" viewBox="0 0 64 64" fill="none" xmlns="http://www.w3.org/2000/svg">
  <defs>
    <linearGradient id="mark" x1="6" y1="10" x2="58" y2="58" gradientUnits="userSpaceOnUse">
      <stop stop-color="#2563eb"/>
      <stop offset="0.5" stop-color="#0f9f8f"/>
      <stop offset="1" stop-color="#f59e0b"/>
    </linearGradient>
  </defs>
  <rect width="64" height="64" rx="14" fill="#f5f8fc"/>
  <path d="M47.2 20.4A20 20 0 1 0 47.2 43.6" stroke="url(#mark)" stroke-width="7" stroke-linecap="round"/>
  <path d="M23 32c0-6.1 4.9-11 11-11 3.1 0 5.9 1.3 7.9 3.4" stroke="#fff" stroke-width="5" stroke-linecap="round"/>
  <path d="M51 13c7.8 4.2 12.6 10.7 11.2 15.8-1.9 7-14.5 9.3-28.2 5.2C20.3 30 10.8 21.1 12.7 14.1c.6-2.1 2.2-3.8 4.6-5" stroke="#2563eb" stroke-width="2.4" stroke-linecap="round" opacity="0.65"/>
  <circle cx="55" cy="15" r="4" fill="#f59e0b"/>
  <circle cx="17" cy="49" r="3" fill="#0f9f8f"/>
</svg>
